<svg xmlns="http://www.w3.org/2000/svg" width="100" height="auto" viewBox="0 0 2000 1500">
  <defs>
    <style>
      .cls-1 {
        fill: none;
        stroke: #e11e1e;
        stroke-linecap: round;
        stroke-width: 1px;
        stroke-dasharray: 0.001 2;
      }

      .cls-2 {
        fill: #001d7e;
        fill-rule: evenodd;
      }

      .cls-3, .cls-5 {
        font-size: 416.667px;
      }

      .cls-3 {
        fill: #fd7700;
      }

      .cls-3, .cls-4, .cls-5 {
        font-family: Impact;
      }

      .cls-4 {
        font-size: 412.5px;
        fill: #ebe7d9;
      }

      .cls-5 {
        fill: #fff;
      }
    </style>
  </defs>
  <circle id="Elipse_1" data-name="Elipse 1" />
  <path id="Rectángulo_1" data-name="Rectángulo 1" class="cls-2" d="M453,408v698s-30.8-54.62-46-86c-0.735-1.52-3-5.13-3-6.53V502.557C404,492.388,453,408,453,408Zm53,770c0-133.4-1-704.037-1-838,0-2.191,8.43-10.6,12-15,13-16.006,37-37,37-37l-1,939s-19.162-17.63-30-31m84,77c0-123.13-.852-797.25-0.983-991.038C606.006,265.8,605.258,253.287,606,243c0.1-1.318,44.92-31.176,45.007-31.264C651.241,211.5,655,209,655,209l-1,1097s-43.145-29.92-47-33m100,63c0-133.4-6-1154-6-1154s19.254-10.525,29-14c14.53-5.181,25-10,25-10V1358m155-180,48-890M910,1400c-0.014-134.77-4-1283-4-1283s27.281-3.756,30-4c15-1.348,22-2,22-2l-1,1293m53,2c0-133.51-1-1162.616-1-1296,0-2.191,22.91.779,26,1,24.79,1.775,23,2,23,2l-1,1289m53-6c0-133.4,1-1142.037,1-1276,0-2.191-.98-1.162,15,2,20.23,4,33,7,33,7l-1,1257m152-60c0-133.4-1-1004.037-1-1138,0-2.191,9.68,5.977,24,14,17.54,9.828,25,15,25,15l-2,1082m55-41c0-133.4-1-867.037-1-1001,0-2.191,12.84,9.576,23,18a234.359,234.359,0,0,1,26,25l-1,916M358,665l-1,179s-6.345-27.641-6-85C351.439,686.128,358,665,358,665Zm1197,426c3.92,1.49-46,67.26-46,67,0-134.72-1-668.29-1-802,0-2.191,17.79,23.332,21,28,15.93,23.189,28,43,28,43l-2,664m88-248c-3.65,26.57-6.4,37.349-15,71-8.79,34.389-19,65.129-19,65,0-134.721-2-311.29-2-445,0-2.191,16.05,47.684,18,53,10.8,29.416,20,112,20,112l4,50M856,125l-1,1264s-8.9-2-24-5c-9.091-1.81-24-6.62-24-8-0.308-133.4,0-1236,0-1236Zm355,1253c0-133.4.1-1093.048,0.1-1227,0-2.192,21.57,8.076,26.9,10,11.7,4.228,25,10,25,10V1358"/>
  <text id="_" data-name="//" class="cls-3" x="-4.08" y="922.852">//</text>
  <text id="C.Rosales" class="cls-4" x="320.95" y="914.598">C.Rosales</text>
  <text id="Lorem_Ipsum" data-name="Lorem Ipsum" class="cls-5" x="2275.42" y="1064.598">Lorem Ipsum</text>
</svg>
